# xmcd
#
# Track frame offsets:
#	182
#	18690
#	31645
#	50547
#	60422
#	71935
#	92042
#	115712
#	128347
#	141905
#	154387
#
# Disc length: 2416
#
# Revision: 1
# Processed by: cddbd v1.5.1PL0 Copyright (c) Steve Scherf et al.
# Submitted via: FreeRIP 2.11 
# Normalized: r0:DSETVAR2,TDELIM( - )
#
DISCID=91096e0b
DTITLE=Various Artist - Blues Classics III
DYEAR=1900
DGENRE=Blues
TTITLE0=Muddy Waters - I'm Ready
TTITLE1=John Lee Hooker - Mr. Lucky
TTITLE2=Etta James - Ooh Poo Pah Doo
TTITLE3=Albert Collins - Shiver And Shake
TTITLE4=Chuck Berry - Nadine
TTITLE5=Howlin'Wolf - Wang Dang Doodle
TTITLE6=Buddy Guy With Jr. Wells and Jr. Mange - Hoochie Coochie Man
TTITLE7=Curties Manfield and The Impressions - It's Allright
TTITLE8=Elmore James - Dust My Broom
TTITLE9=Koko Taylor - Let Me Love You Baby
TTITLE10=BB King With Bobby Bland - Let The Good Times Roll
EXTD=
EXTT0=
EXTT1=
EXTT2=
EXTT3=
EXTT4=
EXTT5=
EXTT6=
EXTT7=
EXTT8=
EXTT9=
EXTT10=
PLAYORDER=
